.
 
http://www.scenetime.com    -   SceneTime [ We been having it ] !!!


How come you press harder on a remote control when you know the battery is dead? so you better seed to get speed ;)

        Seed back for speed


...................................NFO:.................................................[pre]  
ooooo ooo        ooooo       .o.         .oooooo.     o8o  ooooo      ooo oooooooooooo 
`888' `88.       .888'      .888.       d8P'  `Y8b    `"'  `888b.     `8' `888'     `8 
 888   888b     d'888      .8"888.     888           oooo   8 `88b.    8   888         
 888   8 Y88. .P  888     .8' `888.    888           `888   8   `88b.  8   888oooo8    
 888   8  `888'   888    .88ooo8888.   888     ooooo  888   8     `88b.8   888    "    
 888   8    Y     888   .8'     `888.  `88.    .88'   888   8       `888   888       o 
o888o o8o        o888o o88o     o8888o  `Y8bood8P'   o888o o8o        `8  o888ooooood8  
                                                



                  Another Fine Release Brought to you from - IMAGiNE                   
                                                 

******************************************************************************************                              
            Transformers Dark of the Moon 2011 720p TS V2 XViD AC3 - IMAGiNE                                                                
******************************************************************************************

Ripper ...........: IMAGiNE              IMDB Rating.......: 6.7/10                             
Video Codec.......: XViD                 Release Date......: 26/07/11
Audio Codec.......: AC3                  Theatre Date......: 28/06/11
Audio Bitrate.....: 448                  Runtime...........: 2h 20mn
Subtitles.........: NIL                  Language..........: ENGLISH
Resolution........: 1280 x 544           IMDb URL..........: http://www.imdb.com/title/tt1399103/


[color=yellow]DETAILS:[/color]

Video
ID                               : 0
Format                           : MPEG-4 Visual
Format profile                   : Advanced Simple@L5
Format settings, BVOP            : 2
Format settings, QPel            : No
Format settings, GMC             : No warppoints
Format settings, Matrix          : Default (MPEG)
Muxing mode                      : Packed bitstream
Codec ID                         : XVID
Codec ID/Hint                    : XviD
Duration                         : 2h 20mn
Bit rate                         : 3 384 Kbps
Width                            : 1 280 pixels
Height                           : 544 pixels
Display aspect ratio             : 2.35:1
Frame rate                       : 25.000 fps
Color space                      : YUV
Chroma subsampling               : 4:2:0
Bit depth                        : 8 bits
Scan type                        : Progressive
Compression mode                 : Lossy
Bits/(Pixel*Frame)               : 0.194
Stream size                      : 3.33 GiB (88%)
Writing library                  : XviD 64

Audio
ID                               : 1
Format                           : AC-3
Format/Info                      : Audio Coding 3
Mode extension                   : CM (complete main)
Codec ID                         : 2000
Duration                         : 2h 20mn
Bit rate mode                    : Constant
Bit rate                         : 448 Kbps
Channel(s)                       : 6 channels
Channel positions                : Front: L C R, Side: L R, LFE
Sampling rate                    : 48.0 KHz
Bit depth                        : 16 bits
Compression mode                 : Lossy
Stream size                      : 451 MiB (12%)
Alignment                        : Aligned on interleaves
Interleave, duration             : 40 ms (1.00 video frame)




[color=yellow]SOURCES:[/color]

VIDEO: .............. Transformers 3 Dark of the Moon TELESYNC German 720p x264-PFD Thanks Mate :D
AUDIO: .............. Thanx Matey :P

[color=yellow]NOTES:[/color]
IMAGiNE bringing you another release..........
Transformers Dark of the Moon TS V2
Here we have V2 of Transformers 3.......
PDF's video was very nice, 
so we made a script to sharpen
Then adjusted this and that.....
Audio is nice LiNE 
we filtered synced 
split into 6 channels and muxed 
Enjoy!

[color=yellow]SCREENS:[/color]


[color=yellow]GREETS:[/color]

             FLAWL3SS,KINOPARK,Rx,ELEKTRI4KA,ADDiCTED,Autotron,CiNEDUB
                   And to all the other p2p grps past and present 

[COLOR=RED]Looking for these,syncers,cammers,audio,silver supplier.....Have anything to offer????......
Contact us imaginegroup@hushmail.com[/COLOR][/pre]